<svg xmlns="http://www.w3.org/2000/svg" version="1.1" xmlns:xlink="http://www.w3.org/1999/xlink" xmlns:svgjs="http://svgjs.dev/svgjs" width="1500" height="935" viewBox="0 0 1500 935"><g transform="matrix(1,0,0,1,-0.9090909090909918,0.3785425101214628)"><svg viewBox="0 0 396 247" data-background-color="#000000" preserveAspectRatio="xMidYMid meet" height="935" width="1500" xmlns="http://www.w3.org/2000/svg" xmlns:xlink="http://www.w3.org/1999/xlink"><g id="tight-bounds" transform="matrix(1,0,0,1,0.2400000000000091,-0.09999999999999432)"><svg viewBox="0 0 395.52 247.2" height="247.2" width="395.52"><rect width="395.52" height="247.2" fill="url(#b4ef10a9-d25d-4012-b95a-f596f471f78e)" mask="url(#27132f85-4cf4-443c-93a6-569f97e1cdd0)" data-fill-palette-color="tertiary"></rect><g><svg></svg></g><g><svg viewBox="0 0 395.52 247.2" height="247.2" width="395.52"><mask id="8b57ccaf-6499-4054-b6a1-871c024cbe6b"><rect width="395.52" height="247.2" fill="white"></rect><g transform="matrix(1,0,0,1,139.84249411764705,37.08)" id="clone"><svg viewBox="0 0 115.8350117647059 173.04" height="173.04" width="115.8350117647059"><g><svg viewBox="0 0 115.8350117647059 173.04" height="173.04" width="115.8350117647059"><g><svg viewBox="0 0 115.8350117647059 173.04" height="173.04" width="115.8350117647059"><g><svg viewBox="0 0 115.8350117647059 173.04" height="173.04" width="115.8350117647059"><g id="SvgjsG1111"><svg viewBox="0 0 115.8350117647059 173.04" height="173.04" width="115.8350117647059" id="SvgjsSvg1110"><g><svg viewBox="0 0 115.8350117647059 173.04" height="173.04" width="115.8350117647059"><g transform="matrix(1,0,0,1,0,0)"><svg width="115.8350117647059" viewBox="0.25 -40.5 29.45 43.5" height="173.04" data-palette-color="url(#5b2d39d5-30d7-4cc9-a6f2-33f9e875a849)"><path d="M17.55-14.15L17.55-17.7 10.5-17.7 10.5-3.4 13.75-3.4 13.75 0 3.25 0 3.25-3.4 6.4-3.4 6.4-34.1 3.25-34.1 3.25-37.5 26.7-37.5 26.7-28.25 23.3-28.25 23.3-34.1 10.5-34.1 10.5-21.1 17.55-21.1 17.55-24.65 20.95-24.65 20.95-14.15 17.55-14.15Z" opacity="1" transform="matrix(1,0,0,1,0,0)" fill="black" class="wordmark-text-0" id="SvgjsPath1109" stroke-width="5" stroke="black" stroke-linejoin="round"></path></svg></g></svg></g></svg></g></svg></g><g></g></svg></g></svg></g></svg></g></mask><g mask="url(#8b57ccaf-6499-4054-b6a1-871c024cbe6b)"><g><path d="M210.428 146.23v-17.464h-34.683v70.351h15.988v16.727h-51.656v-16.727h15.497v-151.034h-15.497v-16.727h115.366v45.507h-16.727v-28.78h-62.971v63.956h34.683v-17.465h16.727v51.656z" fill="url(#b4ef10a9-d25d-4012-b95a-f596f471f78e)" fill-rule="nonzero" stroke="none" stroke-width="1" stroke-linecap="butt" stroke-linejoin="miter" stroke-miterlimit="10" stroke-dasharray="" stroke-dashoffset="0" font-family="none" font-weight="none" font-size="none" text-anchor="none" style="mix-blend-mode: normal" data-fill-palette-color="tertiary"></path></g></g><g transform="matrix(1,0,0,1,139.84249411764705,37.08)"><svg viewBox="0 0 115.8350117647059 173.04" height="173.04" width="115.8350117647059"><g><svg viewBox="0 0 115.8350117647059 173.04" height="173.04" width="115.8350117647059"><g><svg viewBox="0 0 115.8350117647059 173.04" height="173.04" width="115.8350117647059"><g><svg viewBox="0 0 115.8350117647059 173.04" height="173.04" width="115.8350117647059"><g id="textblocktransform"><svg viewBox="0 0 115.8350117647059 173.04" height="173.04" width="115.8350117647059" id="textblock"><g><svg viewBox="0 0 115.8350117647059 173.04" height="173.04" width="115.8350117647059"><g transform="matrix(1,0,0,1,0,0)"><svg width="115.8350117647059" viewBox="0.25 -40.5 29.45 43.5" height="173.04" data-palette-color="url(#5b2d39d5-30d7-4cc9-a6f2-33f9e875a849)"></svg></g></svg></g></svg></g></svg></g><g></g></svg></g></svg></g></svg></g></svg></g><defs></defs><mask id="b8cd609c-ae9e-47fc-8be8-1c5fabafa429"><g id="SvgjsG1121"><svg viewBox="0 0 395.52 247.2" height="247.2" width="395.52"><g><svg></svg></g><g><svg viewBox="0 0 395.52 247.2" height="247.2" width="395.52"><mask id="SvgjsMask1120"><rect width="395.52" height="247.2" fill="black"></rect><g transform="matrix(1,0,0,1,139.84249411764705,37.08)" id="SvgjsG1119"><svg viewBox="0 0 115.8350117647059 173.04" height="173.04" width="115.8350117647059"><g><svg viewBox="0 0 115.8350117647059 173.04" height="173.04" width="115.8350117647059"><g><svg viewBox="0 0 115.8350117647059 173.04" height="173.04" width="115.8350117647059"><g><svg viewBox="0 0 115.8350117647059 173.04" height="173.04" width="115.8350117647059"><g id="SvgjsG1118"><svg viewBox="0 0 115.8350117647059 173.04" height="173.04" width="115.8350117647059" id="SvgjsSvg1117"><g><svg viewBox="0 0 115.8350117647059 173.04" height="173.04" width="115.8350117647059"><g transform="matrix(1,0,0,1,0,0)"><svg width="115.8350117647059" viewBox="0.25 -40.5 29.45 43.5" height="173.04" data-palette-color="url(#5b2d39d5-30d7-4cc9-a6f2-33f9e875a849)"><path d="M17.55-14.15L17.55-17.7 10.5-17.7 10.5-3.4 13.75-3.4 13.75 0 3.25 0 3.25-3.4 6.4-3.4 6.4-34.1 3.25-34.1 3.25-37.5 26.7-37.5 26.7-28.25 23.3-28.25 23.3-34.1 10.5-34.1 10.5-21.1 17.55-21.1 17.55-24.65 20.95-24.65 20.95-14.15 17.55-14.15Z" opacity="1" transform="matrix(1,0,0,1,0,0)" fill="black" class="wordmark-text-0" id="SvgjsPath1116" stroke-width="5" stroke="black" stroke-linejoin="round"></path></svg></g></svg></g></svg></g></svg></g><g></g></svg></g></svg></g></svg></g></mask><g mask="url(#8b57ccaf-6499-4054-b6a1-871c024cbe6b)"><g><path d="M210.428 146.23v-17.464h-34.683v70.351h15.988v16.727h-51.656v-16.727h15.497v-151.034h-15.497v-16.727h115.366v45.507h-16.727v-28.78h-62.971v63.956h34.683v-17.465h16.727v51.656z" fill="black" fill-rule="nonzero" stroke="none" stroke-width="1" stroke-linecap="butt" stroke-linejoin="miter" stroke-miterlimit="10" stroke-dasharray="" stroke-dashoffset="0" font-family="none" font-weight="none" font-size="none" text-anchor="none" style="mix-blend-mode: normal"></path></g></g><g transform="matrix(1,0,0,1,139.84249411764705,37.08)"><svg viewBox="0 0 115.8350117647059 173.04" height="173.04" width="115.8350117647059"><g><svg viewBox="0 0 115.8350117647059 173.04" height="173.04" width="115.8350117647059"><g><svg viewBox="0 0 115.8350117647059 173.04" height="173.04" width="115.8350117647059"><g><svg viewBox="0 0 115.8350117647059 173.04" height="173.04" width="115.8350117647059"><g id="SvgjsG1115"><svg viewBox="0 0 115.8350117647059 173.04" height="173.04" width="115.8350117647059" id="SvgjsSvg1114"><g><svg viewBox="0 0 115.8350117647059 173.04" height="173.04" width="115.8350117647059"><g transform="matrix(1,0,0,1,0,0)"><svg width="115.8350117647059" viewBox="0.25 -40.5 29.45 43.5" height="173.04" data-palette-color="url(#5b2d39d5-30d7-4cc9-a6f2-33f9e875a849)"><path d="M17.55-14.15L17.55-17.7 10.5-17.7 10.5-3.4 13.75-3.4 13.75 0 3.25 0 3.25-3.4 6.4-3.4 6.4-34.1 3.25-34.1 3.25-37.5 26.7-37.5 26.7-28.25 23.3-28.25 23.3-34.1 10.5-34.1 10.5-21.1 17.55-21.1 17.55-24.65 20.95-24.65 20.95-14.15 17.55-14.15Z" opacity="1" transform="matrix(1,0,0,1,0,0)" fill="white" class="wordmark-text-0" id="SvgjsPath1113"></path></svg></g></svg></g></svg></g></svg></g><g></g></svg></g></svg></g></svg></g></svg></g><defs><mask></mask></defs></svg><rect width="395.52" height="247.2" fill="black" stroke="none" visibility="hidden"></rect></g></mask><linearGradient x1="0.054" x2="0.941" y1="0.5" y2="0.5" id="5b2d39d5-30d7-4cc9-a6f2-33f9e875a849"><stop stop-color="#eaa79c" offset="0"></stop><stop stop-color="#f2e8cb" offset="0.498"></stop><stop stop-color="#eaa79c" offset="1"></stop></linearGradient><rect width="395.52" height="247.2" fill="url(#5b2d39d5-30d7-4cc9-a6f2-33f9e875a849)" mask="url(#b8cd609c-ae9e-47fc-8be8-1c5fabafa429)" data-fill-palette-color="primary"></rect><mask id="27132f85-4cf4-443c-93a6-569f97e1cdd0"><g id="SvgjsG1174"><svg viewBox="0 0 395.52 247.2" height="247.2" width="395.52"><g><svg></svg></g><g><svg viewBox="0 0 395.52 247.2" height="247.2" width="395.52"><mask id="SvgjsMask1173"><rect width="395.52" height="247.2" fill="black"></rect><g transform="matrix(1,0,0,1,139.84249411764705,37.08)" id="SvgjsG1172"><svg viewBox="0 0 115.8350117647059 173.04" height="173.04" width="115.8350117647059"><g><svg viewBox="0 0 115.8350117647059 173.04" height="173.04" width="115.8350117647059"><g><svg viewBox="0 0 115.8350117647059 173.04" height="173.04" width="115.8350117647059"><g><svg viewBox="0 0 115.8350117647059 173.04" height="173.04" width="115.8350117647059"><g id="SvgjsG1171"><svg viewBox="0 0 115.8350117647059 173.04" height="173.04" width="115.8350117647059" id="SvgjsSvg1170"><g><svg viewBox="0 0 115.8350117647059 173.04" height="173.04" width="115.8350117647059"><g transform="matrix(1,0,0,1,0,0)"><svg width="115.8350117647059" viewBox="0.25 -40.5 29.45 43.5" height="173.04" data-palette-color="url(#5b2d39d5-30d7-4cc9-a6f2-33f9e875a849)"><path d="M17.55-14.15L17.55-17.7 10.5-17.7 10.5-3.4 13.75-3.4 13.75 0 3.25 0 3.25-3.4 6.4-3.4 6.4-34.1 3.25-34.1 3.25-37.5 26.7-37.5 26.7-28.25 23.3-28.25 23.3-34.1 10.5-34.1 10.5-21.1 17.55-21.1 17.55-24.65 20.95-24.65 20.95-14.15 17.55-14.15Z" opacity="1" transform="matrix(1,0,0,1,0,0)" fill="black" class="wordmark-text-0" id="SvgjsPath1169" stroke-width="5" stroke="black" stroke-linejoin="round"></path></svg></g></svg></g></svg></g></svg></g><g></g></svg></g></svg></g></svg></g></mask><g mask="url(#8b57ccaf-6499-4054-b6a1-871c024cbe6b)"><g><path d="M210.428 146.23v-17.464h-34.683v70.351h15.988v16.727h-51.656v-16.727h15.497v-151.034h-15.497v-16.727h115.366v45.507h-16.727v-28.78h-62.971v63.956h34.683v-17.465h16.727v51.656z" fill="white" fill-rule="nonzero" stroke="none" stroke-width="1" stroke-linecap="butt" stroke-linejoin="miter" stroke-miterlimit="10" stroke-dasharray="" stroke-dashoffset="0" font-family="none" font-weight="none" font-size="none" text-anchor="none" style="mix-blend-mode: normal"></path></g></g><g transform="matrix(1,0,0,1,139.84249411764705,37.08)"><svg viewBox="0 0 115.8350117647059 173.04" height="173.04" width="115.8350117647059"><g><svg viewBox="0 0 115.8350117647059 173.04" height="173.04" width="115.8350117647059"><g><svg viewBox="0 0 115.8350117647059 173.04" height="173.04" width="115.8350117647059"><g><svg viewBox="0 0 115.8350117647059 173.04" height="173.04" width="115.8350117647059"><g id="SvgjsG1168"><svg viewBox="0 0 115.8350117647059 173.04" height="173.04" width="115.8350117647059" id="SvgjsSvg1167"><g><svg viewBox="0 0 115.8350117647059 173.04" height="173.04" width="115.8350117647059"><g transform="matrix(1,0,0,1,0,0)"><svg width="115.8350117647059" viewBox="0.25 -40.5 29.45 43.5" height="173.04" data-palette-color="url(#5b2d39d5-30d7-4cc9-a6f2-33f9e875a849)"></svg></g></svg></g></svg></g></svg></g><g></g></svg></g></svg></g></svg></g></svg></g><defs><mask></mask></defs><mask><g id="SvgjsG1166"><svg viewBox="0 0 395.52 247.2" height="247.2" width="395.52"><g><svg></svg></g><g><svg viewBox="0 0 395.52 247.2" height="247.2" width="395.52"><mask id="SvgjsMask1165"><rect width="395.52" height="247.2" fill="black"></rect><g transform="matrix(1,0,0,1,139.84249411764705,37.08)" id="SvgjsG1164"><svg viewBox="0 0 115.8350117647059 173.04" height="173.04" width="115.8350117647059"><g><svg viewBox="0 0 115.8350117647059 173.04" height="173.04" width="115.8350117647059"><g><svg viewBox="0 0 115.8350117647059 173.04" height="173.04" width="115.8350117647059"><g><svg viewBox="0 0 115.8350117647059 173.04" height="173.04" width="115.8350117647059"><g id="SvgjsG1163"><svg viewBox="0 0 115.8350117647059 173.04" height="173.04" width="115.8350117647059" id="SvgjsSvg1162"><g><svg viewBox="0 0 115.8350117647059 173.04" height="173.04" width="115.8350117647059"><g transform="matrix(1,0,0,1,0,0)"><svg width="115.8350117647059" viewBox="0.25 -40.5 29.45 43.5" height="173.04" data-palette-color="url(#5b2d39d5-30d7-4cc9-a6f2-33f9e875a849)"><path d="M17.55-14.15L17.55-17.7 10.5-17.7 10.5-3.4 13.75-3.4 13.75 0 3.25 0 3.25-3.4 6.4-3.4 6.4-34.1 3.25-34.1 3.25-37.5 26.7-37.5 26.7-28.25 23.3-28.25 23.3-34.1 10.5-34.1 10.5-21.1 17.55-21.1 17.55-24.65 20.95-24.65 20.95-14.15 17.55-14.15Z" opacity="1" transform="matrix(1,0,0,1,0,0)" fill="black" class="wordmark-text-0" id="SvgjsPath1161" stroke-width="5" stroke="black" stroke-linejoin="round"></path></svg></g></svg></g></svg></g></svg></g><g></g></svg></g></svg></g></svg></g></mask><g mask="url(#8b57ccaf-6499-4054-b6a1-871c024cbe6b)"><g><path d="M210.428 146.23v-17.464h-34.683v70.351h15.988v16.727h-51.656v-16.727h15.497v-151.034h-15.497v-16.727h115.366v45.507h-16.727v-28.78h-62.971v63.956h34.683v-17.465h16.727v51.656z" fill="black" fill-rule="nonzero" stroke="none" stroke-width="1" stroke-linecap="butt" stroke-linejoin="miter" stroke-miterlimit="10" stroke-dasharray="" stroke-dashoffset="0" font-family="none" font-weight="none" font-size="none" text-anchor="none" style="mix-blend-mode: normal"></path></g></g><g transform="matrix(1,0,0,1,139.84249411764705,37.08)"><svg viewBox="0 0 115.8350117647059 173.04" height="173.04" width="115.8350117647059"><g><svg viewBox="0 0 115.8350117647059 173.04" height="173.04" width="115.8350117647059"><g><svg viewBox="0 0 115.8350117647059 173.04" height="173.04" width="115.8350117647059"><g><svg viewBox="0 0 115.8350117647059 173.04" height="173.04" width="115.8350117647059"><g id="SvgjsG1160"><svg viewBox="0 0 115.8350117647059 173.04" height="173.04" width="115.8350117647059" id="SvgjsSvg1159"><g><svg viewBox="0 0 115.8350117647059 173.04" height="173.04" width="115.8350117647059"><g transform="matrix(1,0,0,1,0,0)"><svg width="115.8350117647059" viewBox="0.25 -40.5 29.45 43.5" height="173.04" data-palette-color="url(#5b2d39d5-30d7-4cc9-a6f2-33f9e875a849)"><path d="M17.55-14.15L17.55-17.7 10.5-17.7 10.5-3.4 13.75-3.4 13.75 0 3.25 0 3.25-3.4 6.4-3.4 6.4-34.1 3.25-34.1 3.25-37.5 26.7-37.5 26.7-28.25 23.3-28.25 23.3-34.1 10.5-34.1 10.5-21.1 17.55-21.1 17.55-24.65 20.95-24.65 20.95-14.15 17.55-14.15Z" opacity="1" transform="matrix(1,0,0,1,0,0)" fill="black" class="wordmark-text-0" id="SvgjsPath1158"></path></svg></g></svg></g></svg></g></svg></g><g></g></svg></g></svg></g></svg></g></svg></g><defs><mask></mask></defs></svg><rect width="395.52" height="247.2" fill="black" stroke="none" visibility="hidden"></rect></g></mask></svg><rect width="395.52" height="247.2" fill="black" stroke="none" visibility="hidden"></rect></g></mask><linearGradient x1="0.054" x2="0.941" y1="0.5" y2="0.5" id="b4ef10a9-d25d-4012-b95a-f596f471f78e"><stop stop-color="#eaa79c" offset="0"></stop><stop stop-color="#f2e8cb" offset="0.498"></stop><stop stop-color="#eaa79c" offset="1"></stop></linearGradient></svg><rect width="395.52" height="247.2" fill="none" stroke="none" visibility="hidden"></rect></g></svg></g></svg>